<svg width="14" height="11" viewBox="0 0 14 11" fill="none" xmlns="http://www.w3.org/2000/svg">
<path opacity="0.5" d="M4.92901 9.73529L4.929 9.73528L0.378996 5.32763L0.378987 5.32762C0.337555 5.28749 0.305128 5.24028 0.283156 5.1889C0.261193 5.13754 0.25 5.08278 0.25 5.02768C0.25 4.97258 0.261193 4.91782 0.283156 4.86646C0.305128 4.81508 0.337555 4.76787 0.378987 4.72774L0.378996 4.72773L1.369 3.7687L1.36901 3.76869C1.41045 3.72854 1.46008 3.69629 1.51526 3.67414C1.57045 3.652 1.62987 3.6405 1.69005 3.6405C1.75023 3.6405 1.80965 3.652 1.86484 3.67414C1.92002 3.69629 1.96965 3.72854 2.0111 3.76869L2.0111 3.7687L5.07611 6.73781L5.25005 6.90632L5.424 6.73781L11.989 0.378199L11.989 0.378189C12.0304 0.338038 12.0801 0.305783 12.1353 0.28364C12.1904 0.261493 12.2499 0.25 12.3101 0.25C12.3702 0.25 12.4297 0.261493 12.4848 0.28364C12.54 0.305783 12.5897 0.338038 12.6311 0.378189L12.6311 0.378199L13.6211 1.33723L13.6211 1.33723C13.6625 1.37737 13.695 1.42458 13.7169 1.47596C13.7389 1.52732 13.7501 1.58208 13.7501 1.63718C13.7501 1.69228 13.7389 1.74703 13.7169 1.7984C13.695 1.84978 13.6625 1.89699 13.6211 1.93712L13.6211 1.93713L5.57111 9.73528L5.5711 9.73529C5.52965 9.77545 5.48002 9.8077 5.42484 9.82984L5.51795 10.0619L5.42484 9.82984C5.36965 9.85199 5.31023 9.86348 5.25005 9.86348C5.18987 9.86348 5.13045 9.85199 5.07526 9.82984L4.98216 10.0619L5.07526 9.82984C5.02008 9.8077 4.97045 9.77545 4.92901 9.73529Z" fill="#1B00FB" stroke="#F2F2F2" stroke-width="0.5"/>
</svg>
