<?xml version="1.0" encoding="utf-8"?>
<!-- Generator: Adobe Illustrator 23.0.3, SVG Export Plug-In . SVG Version: 6.00 Build 0)  -->
<svg version="1.1" id="Layer_1" xmlns="http://www.w3.org/2000/svg" xmlns:xlink="http://www.w3.org/1999/xlink" x="0px" y="0px"
     viewBox="0 0 140.1 87.3" style="enable-background:new 0 0 140.1 87.3;" xml:space="preserve">
<style type="text/css">
	.st0{fill:#1B00FA;}
	.st1{fill:#FF9A9A;}
	.st2{fill:#FF0000;}
</style>
    <g>
	<path class="st0" d="M129.6,86.4L129.6,86.4c-5.6,0-10.2-4.6-10.2-10.2v0c0-5.6,4.6-10.2,10.2-10.2h0c5.6,0,10.2,4.6,10.2,10.2v0
		C139.7,81.8,135.2,86.4,129.6,86.4z"/>
        <path class="st1" d="M121.1,62.8L121.1,62.8c-4.9,2.8-11.1,1.1-13.9-3.7l-24-42.9C80.3,11.3,82,5,86.9,2.2l0,0
		C91.7-0.6,98,1.1,100.8,6l24,42.9C127.6,53.7,125.9,60,121.1,62.8z"/>
        <path class="st1" d="M5.5,85.1L5.5,85.1C0.6,82.3-1,76,1.8,71.2L39.4,6c2.8-4.9,9.1-6.5,13.9-3.7l0,0c4.9,2.8,6.5,9.1,3.7,13.9
		L19.4,81.4C16.6,86.2,10.3,87.9,5.5,85.1z"/>
        <path class="st2" d="M49.4,85.1L49.4,85.1c-4.9-2.8-6.5-9.1-3.7-13.9L83.2,6c2.8-4.9,9.1-6.5,13.9-3.7l0,0
		c4.9,2.8,6.5,9.1,3.7,13.9L63.3,81.4C60.5,86.2,54.2,87.9,49.4,85.1z"/>
        <path class="st0" d="M90.9,85.1L90.9,85.1c-4.9,2.8-11.1,1.1-13.9-3.7L39.4,16.2c-2.8-4.9-1.1-11.1,3.7-13.9l0,0
		C48-0.5,54.2,1.2,57,6l37.6,65.1C97.4,76,95.8,82.3,90.9,85.1z"/>
</g>
</svg>